<?xml version="1.0" encoding="UTF-8"?>
<svg xmlns="http://www.w3.org/2000/svg" xmlns:xlink="http://www.w3.org/1999/xlink" width="150px" height="100px" viewBox="0 0 150 100" version="1.1">
<g id="surface1">
<path style=" stroke:none;fill-rule:nonzero;fill:rgb(0%,0%,0%);fill-opacity:1;" d="M 66.90625 49.34375 C 66.90625 89.527344 66.90625 89.914062 67.316406 89.914062 C 67.730469 89.914062 67.730469 89.527344 67.730469 49.34375 C 67.730469 9.15625 67.730469 8.773438 67.316406 8.773438 C 66.90625 8.773438 66.90625 9.15625 66.90625 49.34375 Z M 66.90625 49.34375 "/>
<path style=" stroke:none;fill-rule:nonzero;fill:rgb(0%,0%,0%);fill-opacity:1;" d="M 5.574219 16.007812 C 5.574219 16.722656 18.128906 66.832031 19.039062 69.738281 C 20.792969 75.328125 23.890625 80.152344 26.78125 81.90625 C 28.082031 82.675781 30.394531 82.785156 45.449219 82.785156 L 62.609375 82.785156 L 60.171875 76.589844 C 51.996094 55.921875 49.414062 49.671875 48.382812 47.863281 C 47.246094 45.941406 44.292969 42.761719 43.632812 42.761719 C 43.46875 42.761719 41.980469 39.363281 40.328125 35.199219 C 36.117188 24.507812 35.023438 22.148438 33.144531 19.738281 C 30.191406 15.84375 29.941406 15.789062 21.019531 15.515625 C 15.445312 15.296875 13.007812 15.40625 13.007812 15.84375 C 13.007812 16.886719 14.289062 20.285156 15.261719 21.820312 L 16.210938 23.300781 L 22.09375 23.628906 C 28.722656 23.957031 29.550781 24.34375 32.234375 28.015625 C 33.328125 29.550781 34.503906 31.90625 36.074219 35.800781 L 38.347656 41.390625 L 29.507812 41.558594 C 24.636719 41.613281 20.648438 41.832031 20.648438 41.996094 C 20.648438 42.652344 22.324219 48.027344 22.757812 48.792969 C 23.148438 49.507812 24.78125 49.671875 32.625 49.945312 C 43.136719 50.328125 43.136719 50.328125 46.109375 54.386719 C 47.328125 56.085938 48.421875 58.332031 50.550781 63.597656 C 52.097656 67.433594 53.710938 71.492188 54.082031 72.585938 L 54.804688 74.5625 L 42.105469 74.5625 C 27.773438 74.5625 27.753906 74.5625 24.71875 70.339844 C 21.949219 66.449219 20.917969 63.210938 15.28125 40.84375 C 12.472656 29.714844 9.910156 20.066406 9.582031 19.40625 C 9.25 18.804688 8.671875 17.816406 8.300781 17.324219 C 7.496094 16.226562 5.574219 15.296875 5.574219 16.007812 Z M 5.574219 16.007812 "/>
<path style=" stroke:none;fill-rule:nonzero;fill:rgb(0%,0%,0%);fill-opacity:1;" d="M 71.65625 16.449219 C 71.65625 16.722656 71.839844 16.996094 72.046875 16.996094 C 72.253906 16.996094 72.5 17.378906 72.5625 17.871094 C 72.730469 18.96875 72.730469 35.527344 72.5625 37.117188 C 72.480469 37.882812 72.273438 38.378906 72.027344 38.378906 C 71.820312 38.378906 71.675781 38.597656 71.738281 38.871094 C 71.800781 39.144531 73.058594 39.308594 74.503906 39.253906 C 77.023438 39.199219 77.210938 39.089844 78.015625 37.71875 C 79.152344 35.691406 79.5 32.894531 78.984375 29.933594 C 78.757812 28.671875 78.34375 27.523438 77.910156 26.972656 L 77.230469 26.097656 L 77.746094 24.671875 C 78.015625 23.902344 78.304688 22.53125 78.386719 21.601562 C 78.550781 19.351562 77.828125 17.105469 76.714844 16.449219 C 75.578125 15.734375 71.65625 15.734375 71.65625 16.449219 Z M 76.074219 19.132812 C 76.570312 20.558594 76.570312 24.121094 76.074219 25.054688 C 75.867188 25.4375 75.496094 25.765625 75.226562 25.765625 C 74.773438 25.765625 74.753906 25.546875 74.753906 21.929688 C 74.753906 18.257812 74.773438 18.09375 75.226562 18.09375 C 75.496094 18.09375 75.886719 18.585938 76.074219 19.132812 Z M 75.867188 27.960938 C 76.921875 29.003906 77.394531 34.101562 76.609375 36.183594 C 76.15625 37.390625 75.371094 37.609375 75 36.621094 C 74.855469 36.238281 74.753906 34.265625 74.753906 31.6875 C 74.753906 27.082031 74.8125 26.863281 75.867188 27.960938 Z M 75.867188 27.960938 "/>
<path style=" stroke:none;fill-rule:nonzero;fill:rgb(0%,0%,0%);fill-opacity:1;" d="M 79.707031 16.390625 C 79.707031 16.667969 79.894531 16.996094 80.121094 17.160156 C 80.511719 17.433594 80.535156 17.925781 80.535156 27.027344 C 80.535156 32.347656 80.472656 37.007812 80.410156 37.5 C 80.347656 37.992188 80.101562 38.378906 79.851562 38.378906 C 79.625 38.378906 79.5 38.542969 79.585938 38.761719 C 79.789062 39.363281 83.839844 39.417969 83.839844 38.871094 C 83.839844 38.652344 83.632812 38.378906 83.382812 38.265625 C 82.785156 38.046875 82.640625 35.746094 82.621094 27.136719 C 82.597656 19.296875 82.742188 16.996094 83.238281 16.996094 C 83.464844 16.996094 83.632812 16.722656 83.632812 16.449219 C 83.632812 16.117188 82.847656 15.898438 81.667969 15.898438 C 80.597656 15.898438 79.707031 16.117188 79.707031 16.390625 Z M 79.707031 16.390625 "/>
<path style=" stroke:none;fill-rule:nonzero;fill:rgb(0%,0%,0%);fill-opacity:1;" d="M 85.46875 23.957031 C 85.449219 28.453125 85.386719 33.441406 85.324219 35.085938 C 85.199219 37.664062 85.117188 38.101562 84.664062 38.433594 C 84.375 38.652344 84.1875 38.871094 84.25 38.925781 C 84.5625 39.308594 87.761719 39.199219 87.761719 38.816406 C 87.761719 38.597656 87.574219 38.378906 87.347656 38.378906 C 86.8125 38.378906 86.792969 38.15625 86.625 31.03125 L 86.480469 25.054688 L 87.515625 27.46875 C 88.070312 28.78125 89.433594 32.015625 90.550781 34.648438 C 91.644531 37.335938 92.675781 39.472656 92.839844 39.472656 C 93.070312 39.472656 93.128906 38.265625 93.128906 33.550781 C 93.128906 30.261719 93.191406 25.273438 93.273438 22.476562 C 93.378906 18.203125 93.460938 17.378906 93.792969 17.105469 C 94.679688 16.503906 94.039062 15.898438 92.511719 15.898438 C 91.601562 15.898438 90.859375 16.117188 90.859375 16.390625 C 90.859375 16.667969 91.066406 16.996094 91.3125 17.105469 C 91.914062 17.324219 92.058594 18.804688 92.078125 25.382812 L 92.097656 30.757812 L 89.0625 23.355469 C 87.410156 19.242188 85.921875 15.898438 85.757812 15.898438 C 85.550781 15.898438 85.488281 17.652344 85.46875 23.957031 Z M 85.46875 23.957031 "/>
<path style=" stroke:none;fill-rule:nonzero;fill:rgb(0%,0%,0%);fill-opacity:1;" d="M 97.035156 17.433594 C 95.464844 19.628906 94.699219 22.972656 94.71875 27.632812 C 94.742188 35.417969 96.601562 39.472656 100.128906 39.472656 C 101 39.472656 102.050781 39.199219 102.484375 38.871094 L 103.25 38.324219 L 103.25 33.664062 C 103.25 29.441406 103.289062 28.949219 103.660156 28.671875 C 104.632812 28.015625 103.929688 27.523438 102.011719 27.523438 C 100.875 27.523438 99.945312 27.742188 99.945312 28.015625 C 99.945312 28.289062 100.128906 28.507812 100.359375 28.507812 C 100.914062 28.507812 101.226562 30.703125 101.144531 34.210938 L 101.082031 37.007812 L 100.253906 37.171875 C 98.003906 37.609375 96.351562 29.113281 97.34375 22.257812 C 97.796875 19.078125 98.480469 17.925781 99.863281 17.984375 C 101.246094 17.984375 102.03125 19.023438 102.421875 21.21875 C 102.589844 22.203125 102.792969 23.027344 102.898438 23.027344 C 102.980469 23.027344 103.042969 21.601562 103.042969 19.792969 C 103.042969 16.613281 103.023438 16.558594 102.402344 16.226562 C 102.050781 16.0625 100.9375 15.898438 99.945312 15.898438 C 98.355469 15.898438 97.984375 16.117188 97.035156 17.433594 Z M 97.035156 17.433594 "/>
<path style=" stroke:none;fill-rule:nonzero;fill:rgb(0%,0%,0%);fill-opacity:1;" d="M 104.382812 16.390625 C 104.324219 16.667969 104.488281 16.996094 104.734375 17.105469 C 105.105469 17.214844 105.230469 17.761719 105.355469 19.460938 C 105.542969 22.3125 105.5625 28.34375 105.375 33.71875 C 105.273438 37.226562 105.191406 38.046875 104.859375 38.265625 C 104.652344 38.378906 104.488281 38.707031 104.488281 38.871094 C 104.488281 39.417969 108.535156 39.308594 108.742188 38.761719 C 108.824219 38.542969 108.699219 38.378906 108.492188 38.378906 C 107.75 38.378906 107.585938 37.28125 107.585938 32.511719 L 107.585938 27.960938 L 111.117188 27.960938 L 111.054688 33.003906 C 110.992188 37.882812 110.972656 38.046875 110.476562 38.433594 C 110.1875 38.652344 110 38.871094 110.0625 38.925781 C 110.394531 39.308594 114.398438 39.253906 114.398438 38.871094 C 114.398438 38.652344 114.191406 38.378906 113.945312 38.265625 C 113.46875 38.101562 113.46875 37.992188 113.410156 27.796875 C 113.367188 17.816406 113.367188 17.433594 113.78125 17.160156 C 114.769531 16.449219 114.027344 15.898438 112.128906 15.898438 C 110.992188 15.898438 110.0625 16.117188 110.0625 16.390625 C 110.0625 16.667969 110.269531 16.996094 110.539062 17.105469 C 110.953125 17.269531 110.992188 17.597656 111.054688 21.21875 L 111.117188 25.21875 L 107.566406 25.21875 L 107.625 21.21875 C 107.6875 17.597656 107.730469 17.269531 108.164062 17.105469 C 108.410156 16.996094 108.578125 16.667969 108.515625 16.390625 C 108.433594 16.117188 107.523438 15.898438 106.449219 15.898438 C 105.375 15.898438 104.46875 16.117188 104.382812 16.390625 Z M 104.382812 16.390625 "/>
<path style=" stroke:none;fill-rule:nonzero;fill:rgb(0%,0%,0%);fill-opacity:1;" d="M 117.828125 26.863281 C 116.320312 36.019531 115.929688 37.882812 115.515625 38.15625 C 114.523438 38.816406 115.0625 39.308594 116.671875 39.308594 C 117.578125 39.308594 118.324219 39.089844 118.324219 38.816406 C 118.324219 38.597656 118.179688 38.378906 118.011719 38.378906 C 117.519531 38.378906 117.433594 37.0625 117.785156 34.867188 L 118.097656 32.894531 L 120.738281 32.894531 L 121.089844 35.363281 C 121.296875 36.675781 121.398438 38.046875 121.339844 38.265625 C 121.277344 38.542969 121.792969 38.925781 122.496094 39.144531 C 124.269531 39.636719 124.929688 39.582031 124.929688 38.925781 C 124.929688 38.597656 124.765625 38.378906 124.539062 38.378906 C 124.332031 38.378906 124.042969 38.046875 123.917969 37.609375 C 123.773438 37.171875 122.886719 32.183594 121.957031 26.480469 C 121.007812 20.832031 120.097656 16.117188 119.953125 16.007812 C 119.769531 15.953125 119.046875 19.515625 117.828125 26.863281 Z M 119.933594 27.414062 L 120.367188 30.152344 L 119.417969 30.152344 C 118.757812 30.152344 118.507812 29.933594 118.589844 29.441406 C 118.632812 29.113281 118.796875 27.851562 118.964844 26.699219 C 119.109375 25.601562 119.292969 24.671875 119.375 24.671875 C 119.4375 24.671875 119.707031 25.878906 119.933594 27.414062 Z M 119.933594 27.414062 "/>
<path style=" stroke:none;fill-rule:nonzero;fill:rgb(0%,0%,0%);fill-opacity:1;" d="M 123.382812 18.421875 C 123.21875 21.4375 123.320312 21.875 123.773438 20.011719 C 124.0625 18.804688 124.269531 18.640625 125.242188 18.640625 L 126.375 18.640625 L 126.375 27.632812 C 126.375 32.566406 126.316406 37.007812 126.253906 37.5 C 126.191406 37.992188 125.941406 38.378906 125.695312 38.378906 C 125.46875 38.378906 125.34375 38.542969 125.425781 38.761719 C 125.652344 39.363281 129.453125 39.417969 129.597656 38.871094 C 129.660156 38.597656 129.515625 38.378906 129.269531 38.378906 C 128.585938 38.378906 128.441406 36.292969 128.441406 27.082031 L 128.441406 18.585938 L 129.640625 18.75 C 130.628906 18.914062 130.859375 19.132812 131.023438 20.121094 C 131.351562 22.148438 131.539062 21.601562 131.539062 18.640625 L 131.539062 15.898438 L 123.527344 15.898438 Z M 123.382812 18.421875 "/>
<path style=" stroke:none;fill-rule:nonzero;fill:rgb(0%,0%,0%);fill-opacity:1;" d="M 132.074219 17.597656 C 132.015625 18.53125 131.953125 19.847656 131.953125 20.503906 C 131.972656 21.546875 131.992188 21.546875 132.386719 20.121094 C 132.757812 18.804688 132.941406 18.640625 133.933594 18.640625 L 135.050781 18.640625 L 135.050781 27.082031 C 135.050781 35.910156 134.882812 38.378906 134.304688 38.378906 C 134.101562 38.378906 134.015625 38.542969 134.101562 38.761719 C 134.328125 39.363281 138.125 39.417969 138.269531 38.871094 C 138.332031 38.597656 138.207031 38.378906 138.003906 38.378906 C 137.195312 38.378906 137.113281 37.390625 137.113281 27.851562 L 137.113281 18.640625 L 138.0625 18.640625 C 139.136719 18.640625 139.800781 19.40625 139.800781 20.613281 C 139.800781 21.050781 139.902344 21.273438 140.003906 21.109375 C 140.128906 20.941406 140.210938 19.683594 140.210938 18.3125 L 140.210938 15.898438 L 132.21875 15.898438 Z M 132.074219 17.597656 "/>
<path style=" stroke:none;fill-rule:nonzero;fill:rgb(0%,0%,0%);fill-opacity:1;" d="M 140.625 16.390625 C 140.625 16.667969 140.8125 16.996094 141.039062 17.160156 C 141.429688 17.433594 141.449219 17.925781 141.449219 27.6875 C 141.449219 37.445312 141.429688 37.9375 141.039062 38.210938 C 140.109375 38.871094 140.726562 39.253906 142.691406 39.308594 C 143.824219 39.308594 144.753906 39.089844 144.753906 38.871094 C 144.753906 38.652344 144.546875 38.378906 144.300781 38.265625 C 143.824219 38.101562 143.824219 37.992188 143.765625 27.796875 C 143.722656 17.816406 143.722656 17.433594 144.136719 17.160156 C 145.105469 16.503906 144.402344 15.898438 142.585938 15.898438 C 141.511719 15.898438 140.625 16.117188 140.625 16.390625 Z M 140.625 16.390625 "/>
<path style=" stroke:none;fill-rule:nonzero;fill:rgb(0%,0%,0%);fill-opacity:1;" d="M 102.113281 50.824219 L 101.492188 51.042969 L 101.554688 60.472656 C 101.597656 65.679688 101.722656 70.613281 101.84375 71.4375 C 102.277344 74.398438 102.648438 74.5625 109.464844 74.5625 C 115.039062 74.5625 115.679688 74.453125 115.554688 73.683594 C 115.496094 73.191406 115.433594 72.367188 115.433594 71.765625 C 115.433594 70.832031 115.265625 70.722656 114.132812 70.722656 C 113.140625 70.722656 112.726562 70.503906 112.480469 69.738281 C 111.613281 67.214844 112.003906 62.335938 113.121094 61.675781 C 113.492188 61.511719 113.945312 61.621094 114.214844 61.953125 C 114.566406 62.5 114.710938 62.445312 114.976562 61.734375 C 115.265625 60.964844 115.183594 60.746094 114.109375 59.429688 C 112.664062 57.675781 111.796875 57.949219 110.746094 60.527344 C 110.105469 62.0625 109.980469 62.71875 109.898438 65.351562 C 109.855469 67.105469 109.917969 68.859375 110.042969 69.574219 L 110.289062 70.777344 L 107.132812 70.613281 L 103.972656 70.449219 L 103.910156 60.417969 L 103.867188 50.4375 L 103.289062 50.546875 C 102.980469 50.546875 102.445312 50.710938 102.113281 50.824219 Z M 102.113281 50.824219 "/>
<path style=" stroke:none;fill-rule:nonzero;fill:rgb(0%,0%,0%);fill-opacity:1;" d="M 111.714844 51.261719 C 111.28125 52.632812 111.777344 54.933594 112.480469 54.714844 C 113.179688 54.496094 113.554688 53.015625 113.242188 51.644531 C 112.933594 50.382812 112.066406 50.164062 111.714844 51.261719 Z M 111.714844 51.261719 "/>
<path style=" stroke:none;fill-rule:nonzero;fill:rgb(0%,0%,0%);fill-opacity:1;" d="M 89.371094 61.128906 L 89.453125 70.777344 L 86.378906 70.613281 L 83.320312 70.449219 L 83.261719 64.527344 L 83.199219 58.664062 L 80.886719 58.664062 C 77.996094 58.664062 77.066406 59.59375 76.382812 63.101562 C 75.476562 67.871094 76.238281 73.902344 77.871094 74.835938 C 78.574219 75.273438 78.550781 75.21875 78.179688 77.246094 C 77.621094 80.042969 76.011719 80.921875 74.957031 78.949219 C 74.089844 77.300781 73.71875 74.175781 73.71875 68.75 L 73.71875 64.089844 L 72.644531 64.253906 L 71.550781 64.417969 L 71.59375 69.847656 C 71.632812 76.644531 72.109375 79.550781 73.492188 81.523438 C 74.257812 82.566406 74.710938 82.785156 76.402344 82.785156 C 78.140625 82.785156 78.488281 82.621094 79.089844 81.523438 C 80.101562 79.714844 80.535156 77.90625 80.679688 74.671875 L 80.800781 71.820312 L 79.933594 71.820312 C 78.738281 71.820312 78.261719 70.394531 78.261719 66.941406 C 78.261719 63.046875 78.800781 61.402344 80.140625 61.402344 L 81.152344 61.402344 L 81.152344 65.789062 C 81.152344 70.777344 81.441406 72.917969 82.289062 73.902344 C 82.683594 74.398438 85.140625 74.5625 91.167969 74.5625 L 99.53125 74.5625 L 99.53125 68.859375 C 99.53125 63.925781 99.46875 62.992188 99.097656 61.734375 C 98.480469 59.648438 97.527344 58.496094 96.332031 58.496094 C 95.03125 58.441406 93.9375 59.921875 92.65625 63.378906 L 91.683594 65.953125 L 91.683594 51.535156 L 89.308594 51.535156 Z M 97.261719 62.992188 C 97.363281 63.597656 97.46875 65.570312 97.46875 67.378906 L 97.46875 70.722656 L 94.679688 70.722656 C 91.914062 70.722656 91.871094 70.722656 92.097656 69.574219 C 92.429688 67.984375 93.851562 64.308594 94.636719 63.046875 C 95.527344 61.566406 96.972656 61.566406 97.261719 62.992188 Z M 97.261719 62.992188 "/>
<path style=" stroke:none;fill-rule:nonzero;fill:rgb(0%,0%,0%);fill-opacity:1;" d="M 124.953125 59.15625 L 124.25 59.484375 L 124.292969 66.886719 C 124.332031 74.671875 124.1875 76.644531 123.445312 78.78125 C 122.867188 80.425781 121.6875 80.484375 120.90625 78.835938 C 120.058594 77.082031 119.769531 74.671875 119.769531 69.078125 L 119.769531 64.144531 L 117.433594 64.144531 L 117.539062 69.574219 C 117.703125 78.726562 118.695312 81.960938 121.585938 82.621094 C 123.753906 83.167969 125.632812 80.648438 126.210938 76.425781 L 126.460938 74.5625 L 134.78125 74.5625 C 140.769531 74.5625 143.226562 74.398438 143.621094 73.902344 C 144.527344 72.808594 144.753906 70.832031 144.753906 64.417969 L 144.753906 58.664062 L 144.199219 58.71875 C 143.867188 58.773438 143.351562 58.9375 143.019531 59.15625 L 142.421875 59.484375 L 142.402344 64.96875 L 142.378906 70.449219 L 134.738281 70.613281 C 127.738281 70.722656 127.078125 70.667969 126.851562 69.792969 C 126.6875 69.1875 126.582031 66.996094 126.582031 63.761719 C 126.582031 58.058594 126.664062 58.332031 124.953125 59.15625 Z M 124.953125 59.15625 "/>
<path style=" stroke:none;fill-rule:nonzero;fill:rgb(0%,0%,0%);fill-opacity:1;" d="M 121.253906 62.609375 C 120.675781 64.144531 121.195312 66.558594 122.0625 66.226562 C 122.679688 66.007812 123.03125 64.417969 122.742188 63.15625 C 122.453125 62.007812 121.605469 61.675781 121.253906 62.609375 Z M 121.253906 62.609375 "/>
<path style=" stroke:none;fill-rule:nonzero;fill:rgb(0%,0%,0%);fill-opacity:1;" d="M 142.484375 78.617188 C 142.152344 79.714844 142.296875 81.6875 142.75 82.457031 C 143.558594 83.773438 144.382812 80.042969 143.597656 78.5625 C 143.125 77.632812 142.792969 77.6875 142.484375 78.617188 Z M 142.484375 78.617188 "/>
<path style=" stroke:none;fill-rule:nonzero;fill:rgb(0%,0%,0%);fill-opacity:1;" d="M 74.546875 87.117188 C 74.234375 88.707031 74.277344 89.253906 74.855469 90.242188 C 75.351562 91.117188 75.414062 91.117188 75.785156 90.1875 C 76.257812 89.089844 76.320312 87.71875 75.949219 86.734375 C 75.578125 85.746094 74.792969 85.964844 74.546875 87.117188 Z M 74.546875 87.117188 "/>
<path style=" stroke:none;fill-rule:nonzero;fill:rgb(0%,0%,0%);fill-opacity:1;" d="M 76.859375 86.734375 C 76.464844 87.773438 76.570312 89.253906 77.125 90.242188 C 77.621094 91.117188 77.683594 91.117188 78.054688 90.1875 C 78.757812 88.488281 78.449219 86.074219 77.539062 86.074219 C 77.292969 86.074219 77.003906 86.347656 76.859375 86.734375 Z M 76.859375 86.734375 "/>
</g>
</svg>
